<svg xmlns="http://www.w3.org/2000/svg" xmlns:xlink="http://www.w3.org/1999/xlink" width="2048" zoomAndPan="magnify" viewBox="0 0 1536 1535.999932" height="2048" preserveAspectRatio="xMidYMid meet" version="1.2"><metadata><ContainsAiGeneratedContent>Yes</ContainsAiGeneratedContent></metadata><defs><clipPath id="eb48a1e1df"><path d="M 240.753906 240.753906 L 1382.253906 240.753906 L 1382.253906 1382.253906 L 240.753906 1382.253906 Z M 240.753906 240.753906 "/></clipPath><clipPath id="7c367b3a73"><path d="M 329.222656 276.03125 L 563 276.03125 L 563 513.78125 L 329.222656 513.78125 Z M 329.222656 276.03125 "/></clipPath></defs><g id="880d94980e"><g clip-rule="nonzero" clip-path="url(#eb48a1e1df)"><path style=" stroke:none;fill-rule:nonzero;fill:#dba76d;fill-opacity:1;" d="M 811.503906 1382.253906 C 496.183594 1382.253906 240.753906 1125.066406 240.753906 811.503906 C 240.753906 497.945312 496.183594 240.753906 811.503906 240.753906 C 1126.828125 240.753906 1382.253906 496.183594 1382.253906 811.503906 C 1382.253906 1126.828125 1125.066406 1382.253906 811.503906 1382.253906 Z M 811.503906 275.988281 C 515.5625 275.988281 275.988281 515.558594 275.988281 811.503906 C 275.988281 1107.449219 515.5625 1347.023438 811.503906 1347.023438 C 1107.449219 1347.023438 1347.023438 1107.449219 1347.023438 811.503906 C 1347.023438 515.558594 1105.6875 275.988281 811.503906 275.988281 Z M 811.503906 275.988281 "/></g><g clip-rule="nonzero" clip-path="url(#7c367b3a73)"><path style=" stroke:none;fill-rule:nonzero;fill:#180303;fill-opacity:1;" d="M 562.738281 461.5 C 561.921875 467.828125 558.203125 473.382812 553.523438 477.585938 C 548.796875 481.453125 543.488281 484.738281 537.652344 486.574219 C 532.101562 488.648438 526.167969 489.230469 520.378906 489.953125 C 516.808594 490.148438 513.191406 490.535156 509.667969 489.808594 C 504.359375 497.539062 495.820312 502.273438 487.183594 505.414062 C 482.988281 506.765625 478.886719 508.3125 474.6875 509.566406 C 468.464844 512.078125 461.710938 512.417969 455.101562 512.371094 C 451 512.320312 446.707031 511.5 443.28125 509.230469 C 441.253906 511.257812 438.070312 511.644531 435.367188 512.515625 C 431.167969 513.769531 426.730469 513.191406 422.582031 512.222656 C 416.792969 511.257812 411.097656 509.808594 405.355469 508.554688 C 398.214844 507.394531 391.027344 505.800781 384.609375 502.417969 C 379.59375 499.617188 376.121094 494.832031 373.273438 489.953125 C 369.269531 483.046875 369.269531 474.785156 370.28125 467.152344 C 371.921875 452.707031 376.410156 438.648438 382.535156 425.507812 C 376.167969 423.769531 370.183594 420.535156 365.261719 416.089844 C 364.78125 415.558594 364.203125 414.976562 363.476562 414.398438 C 361.597656 412.515625 359.90625 410.4375 358.460938 408.214844 C 357.882812 407.199219 357.398438 406.136719 356.917969 405.027344 C 354.070312 407.636719 351.367188 411.066406 350.066406 415.460938 C 349.726562 416.570312 348.714844 417.25 347.652344 417.25 C 347.410156 417.25 347.171875 417.199219 346.929688 417.152344 C 345.578125 416.765625 344.855469 415.363281 345.242188 414.011719 C 347.121094 407.730469 351.128906 403.09375 355.132812 399.855469 C 354.3125 396.8125 353.78125 393.671875 353.441406 390.679688 C 347.21875 392.320312 339.257812 395.75 334.144531 402.996094 C 333.660156 403.722656 332.890625 404.058594 332.070312 404.058594 C 331.585938 404.058594 331.054688 403.914062 330.621094 403.625 C 329.464844 402.804688 329.222656 401.257812 329.996094 400.097656 C 336.21875 391.160156 345.867188 387.25 353.007812 385.507812 C 352.863281 382.949219 352.863281 380.628906 352.914062 378.648438 C 346.976562 378.792969 339.933594 380.148438 334 384.738281 C 333.515625 385.074219 332.984375 385.269531 332.457031 385.269531 C 331.683594 385.269531 330.960938 384.929688 330.476562 384.300781 C 329.609375 383.191406 329.851562 381.597656 330.910156 380.773438 C 338.050781 375.269531 346.351562 373.722656 353.203125 373.625 C 353.25 373.289062 353.25 373.140625 353.25 373.140625 C 354.40625 366.621094 356.046875 360.148438 358.363281 353.914062 C 357.011719 350.726562 356.964844 347.25 356.628906 343.867188 C 356.289062 339.035156 355.902344 334.253906 355.515625 329.421875 C 355.179688 320.242188 353.539062 310.824219 356.144531 301.835938 C 357.6875 295.703125 363.332031 291.210938 369.558594 290.582031 C 378.484375 289.617188 387.167969 292.996094 395.128906 296.667969 C 399.179688 298.648438 402.847656 301.402344 406.273438 304.253906 C 406.660156 304.832031 407.335938 304.300781 407.769531 304.109375 C 416.550781 299.519531 444.195312 287.730469 448.925781 287.539062 C 450.804688 287.488281 452.640625 288.890625 452.6875 290.824219 C 453.074219 293.964844 450.46875 296.28125 448.636719 298.503906 C 451.242188 299.179688 454.039062 299.664062 456.691406 299.277344 C 468.175781 291.984375 479.320312 283.964844 491.914062 278.550781 C 496.015625 277.152344 500.5 276.039062 504.84375 277.007812 C 509.476562 278.070312 511.597656 282.851562 512.996094 286.863281 C 515.121094 294.976562 516.566406 303.285156 516.710938 311.691406 C 517.484375 320.242188 516.664062 328.792969 517.242188 337.34375 C 517.242188 341.984375 519.027344 346.378906 519.703125 350.96875 C 520.378906 354.929688 522.019531 358.648438 522.550781 362.660156 C 522.742188 363.769531 523.226562 366.863281 523.707031 370.871094 C 530.125 370.535156 537.699219 371.453125 544.695312 375.703125 C 545.902344 376.425781 546.238281 377.972656 545.515625 379.179688 C 545.035156 379.953125 544.214844 380.386719 543.34375 380.386719 C 542.910156 380.386719 542.429688 380.292969 542.042969 380.003906 C 536.253906 376.476562 529.789062 375.65625 524.238281 375.894531 C 524.480469 378.214844 524.671875 380.628906 524.769531 383.046875 C 531.863281 384.203125 540.980469 387.199219 547.640625 394.832031 C 548.554688 395.894531 548.457031 397.488281 547.398438 398.40625 C 546.914062 398.84375 546.335938 399.035156 545.757812 399.035156 C 545.035156 399.035156 544.359375 398.746094 543.875 398.167969 C 538.519531 392.03125 531.042969 389.375 524.914062 388.261719 C 524.914062 392.03125 524.671875 395.507812 524.046875 398.214844 C 527.953125 400.96875 531.765625 404.882812 534.082031 410.292969 C 534.613281 411.597656 534.03125 413.046875 532.730469 413.625 C 532.390625 413.769531 532.054688 413.820312 531.765625 413.820312 C 530.800781 413.820312 529.835938 413.238281 529.449219 412.273438 C 527.761719 408.214844 524.867188 405.121094 521.875 402.902344 C 520.523438 404.738281 519.027344 406.476562 517.484375 408.167969 C 511.453125 413.820312 503.976562 417.636719 496.496094 420.824219 C 497.507812 421.789062 498.136719 422.996094 498.714844 424.253906 C 503.394531 434.589844 506.484375 445.605469 509.378906 456.574219 C 510.152344 459.617188 511.261719 462.660156 511.550781 465.800781 C 514.925781 464.011719 518.640625 462.804688 522.066406 461.113281 C 520.089844 457.925781 520.089844 453.964844 520.863281 450.4375 C 522.355469 443.867188 526.84375 438.214844 532.585938 434.832031 C 537.601562 432.222656 543.585938 432.273438 548.84375 434.109375 C 557.578125 436.667969 562.933594 445.894531 562.886719 454.738281 C 562.886719 456.863281 563.222656 459.230469 562.738281 461.5 Z M 562.738281 461.5 "/></g><path style=" stroke:none;fill-rule:nonzero;fill:#e08989;fill-opacity:1;" d="M 484.820312 301.546875 C 483.132812 303.433594 481.296875 305.171875 479.804688 307.25 C 493.265625 312.222656 505.179688 321.835938 511.9375 334.640625 C 511.597656 332.996094 512.371094 331.304688 512.371094 329.664062 C 513.09375 325.703125 512.515625 321.691406 512.609375 317.730469 C 512.128906 308.601562 511.597656 299.421875 509.523438 290.484375 C 500.644531 287.972656 489.019531 297.539062 484.820312 301.546875 Z M 360.824219 314.832031 C 361.691406 325.507812 362.273438 336.1875 363.042969 346.8125 C 365.070312 342.371094 368.160156 338.261719 371.199219 334.351562 C 375.636719 329.230469 379.835938 323.867188 384.804688 319.230469 C 377.613281 313.046875 369.992188 307.054688 361.164062 303.382812 C 360.582031 307.152344 360.632812 311.015625 360.824219 314.832031 Z M 360.824219 314.832031 "/><path style=" stroke:none;fill-rule:nonzero;fill:#f6e5cb;fill-opacity:1;" d="M 535.144531 481.5 C 535.09375 474.109375 530.65625 467.539062 525.011719 463.09375 C 523.613281 464.542969 521.730469 465.125 519.800781 465.558594 C 522.261719 468.84375 524.671875 472.273438 525.6875 476.28125 C 526.457031 478.554688 526.84375 481.210938 525.734375 483.480469 C 529.015625 483.480469 532.054688 482.175781 535.144531 481.5 Z M 551.59375 441.789062 C 549.085938 439.324219 545.324219 439.519531 542.042969 439.132812 C 535.625 438.503906 529.546875 442.417969 526.167969 447.683594 C 524.238281 450.4375 523.320312 454.300781 524.816406 457.441406 C 528.726562 456.234375 532.585938 453.335938 536.929688 454.351562 C 544.792969 455.800781 551.691406 462.128906 553.378906 470.050781 C 554.972656 466.234375 557.289062 462.464844 557.335938 458.167969 C 557.769531 452.320312 556.566406 445.558594 551.59375 441.789062 Z M 514.300781 387.441406 C 512.902344 387.585938 511.695312 386.523438 511.550781 385.171875 C 511.40625 383.769531 512.417969 382.5625 513.816406 382.417969 C 514.058594 382.371094 516.085938 382.222656 519.125 382.371094 C 518.980469 380.484375 518.785156 378.503906 518.546875 376.476562 C 513.867188 377.296875 510.679688 378.601562 510.632812 378.648438 C 509.332031 379.179688 507.882812 378.554688 507.351562 377.296875 C 506.820312 375.992188 507.398438 374.542969 508.703125 374.011719 C 509.039062 373.867188 512.609375 372.417969 517.871094 371.5 C 516.953125 365.605469 515.746094 359.761719 514.78125 355.414062 C 514.300781 352.996094 513.769531 350.582031 513.09375 348.167969 C 513.09375 348.117188 513.09375 348.070312 513.09375 348.070312 C 511.9375 344.058594 510.441406 340.195312 508.511719 336.523438 C 504.746094 329.566406 500.164062 322.851562 493.746094 318.019531 C 488.824219 314.785156 483.757812 311.355469 477.921875 310.195312 C 476.90625 310.050781 475.605469 309.808594 475.316406 308.601562 C 474.59375 306.957031 476.28125 305.800781 477.390625 304.929688 C 486.269531 295.414062 493.167969 290.917969 496.980469 288.890625 C 498.910156 287.875 501.03125 287.25 503.203125 287.007812 C 504.84375 286.863281 506.917969 286.71875 508.605469 286.910156 C 507.929688 284.734375 506.050781 283.09375 503.828125 282.753906 C 503.347656 282.707031 502.863281 282.609375 502.382812 282.5625 C 494.953125 282.851562 488.535156 287.054688 482.410156 290.871094 C 476.8125 294.058594 471.648438 297.875 466.390625 301.546875 C 467.453125 302.03125 468.996094 302.753906 470.296875 303.625 C 471.550781 304.445312 470.730469 306.378906 469.285156 306.089844 C 453.699219 302.902344 456.210938 304.351562 448.296875 303.285156 C 446.320312 303.191406 444.292969 303.335938 442.410156 302.609375 C 440.382812 301.789062 439.902344 298.648438 441.542969 297.25 C 442.605469 295.894531 444.824219 295.800781 445.691406 294.398438 C 437.632812 295.992188 430.6875 300.773438 422.871094 303.046875 C 412.789062 307.054688 401.546875 309.566406 393.488281 317.34375 C 391.75 316.910156 392.332031 314.445312 393.34375 313.527344 C 395.949219 310.96875 399.761719 309.519531 401.785156 306.570312 C 391.894531 301.742188 381.476562 297.636719 370.425781 296.71875 C 368.207031 296.570312 365.792969 296.28125 363.71875 297.25 C 362.753906 298.3125 362.753906 299.90625 361.742188 301.015625 C 366.226562 301.691406 370.183594 303.964844 374.09375 306.089844 C 378 308.601562 382.199219 310.824219 385.480469 314.203125 C 387.167969 316.234375 390.304688 317.875 389.820312 320.921875 C 389 321.597656 388.179688 320.921875 387.410156 320.582031 C 383.019531 324.15625 379.785156 328.890625 376.121094 333.140625 C 370.523438 339.230469 366.035156 346.332031 363.042969 354.011719 C 360.679688 358.554688 359.183594 363.527344 358.605469 368.648438 C 358.605469 368.648438 358.121094 370.582031 357.6875 373.722656 C 362.851562 374.109375 366.46875 375.121094 366.808594 375.21875 C 368.160156 375.605469 368.929688 377.007812 368.496094 378.359375 C 368.109375 379.710938 366.710938 380.484375 365.359375 380.050781 C 365.261719 380.003906 361.933594 379.085938 357.207031 378.746094 C 357.109375 380.582031 357.109375 382.5625 357.207031 384.6875 C 360.246094 384.203125 362.320312 384.15625 362.609375 384.15625 C 362.609375 384.15625 362.65625 384.15625 362.65625 384.15625 C 364.058594 384.15625 365.167969 385.269531 365.167969 386.667969 C 365.167969 388.070312 364.058594 389.230469 362.707031 389.230469 C 362.609375 389.230469 360.679688 389.277344 357.738281 389.761719 C 358.074219 392.128906 358.605469 394.542969 359.378906 396.910156 C 362.949219 394.6875 365.792969 393.671875 366.082031 393.578125 C 367.386719 393.09375 368.832031 393.820312 369.316406 395.121094 C 369.796875 396.425781 369.074219 397.875 367.773438 398.359375 C 367.722656 398.359375 364.78125 399.421875 361.308594 401.742188 C 364.972656 409.421875 371.730469 416.332031 383.597656 419.808594 C 383.597656 419.808594 383.644531 419.808594 383.644531 419.808594 C 384.320312 420.003906 384.996094 420.195312 385.71875 420.390625 C 390.640625 422.128906 395.609375 423.769531 400.628906 425.121094 C 402.605469 425.65625 404.679688 426.234375 406.757812 425.992188 C 408.011719 425.75 411.675781 425.75 411.003906 426.667969 C 409.941406 428.9375 407.238281 429.472656 405.019531 429.472656 C 398.84375 429.90625 393.003906 427.539062 387.121094 426.1875 C 385.238281 431.886719 382.585938 437.394531 381.039062 443.238281 C 379.304688 447.636719 378.722656 452.371094 377.375 456.863281 C 376.023438 462.175781 375.394531 467.585938 375.347656 473.046875 C 375.25 477.730469 375.492188 482.660156 377.808594 486.8125 C 379.640625 491.546875 382.730469 495.894531 386.976562 498.648438 C 393.003906 501.933594 399.664062 504.832031 406.707031 504.351562 C 404.875 503.191406 404.007812 501.113281 402.894531 499.375 C 400.144531 495.125 398.601562 490.292969 396.769531 485.605469 C 396.722656 484.496094 397.445312 482.320312 398.941406 482.949219 C 400.242188 483.289062 400.871094 484.589844 401.351562 485.703125 C 403.863281 491.5 406.757812 497.296875 411.050781 501.984375 C 413.605469 504.738281 416.984375 506.089844 420.554688 507.054688 C 420.554688 507.054688 432.664062 511.984375 436.523438 506.039062 C 436.910156 505.460938 437.105469 504.785156 437.199219 503.964844 C 439.566406 495.800781 439.566406 487.054688 440.09375 478.601562 C 440.675781 476.8125 443.570312 476.667969 443.714844 478.792969 C 444.582031 485.125 444.050781 491.933594 445.738281 498.457031 C 446.898438 502.851562 450.710938 506.089844 455.246094 506.332031 C 455.246094 506.332031 455.292969 506.332031 455.292969 506.332031 C 455.292969 506.332031 456.546875 506.574219 459.730469 505.847656 C 464.171875 506.332031 468.996094 505.605469 472.613281 502.757812 C 480.140625 497.972656 483.179688 488.84375 484.242188 480.4375 C 484.386719 478.699219 487.136719 477.925781 487.667969 479.808594 C 487.859375 486.621094 486.171875 493.335938 483.902344 499.710938 C 483.566406 500.679688 482.746094 501.355469 482.117188 502.175781 C 484.289062 500.96875 486.75 500.582031 489.019531 499.664062 C 493.84375 497.730469 498.570312 495.074219 501.996094 491.066406 C 505.421875 487.972656 506.484375 483.191406 506.484375 478.746094 C 506.484375 467.394531 503.589844 456.234375 500.257812 445.460938 C 498.136719 437.78125 495.386719 430.292969 492.445312 422.851562 C 486.703125 425.027344 481.105469 427.539062 475.21875 429.324219 C 471.457031 430.390625 467.066406 431.257812 463.542969 428.988281 C 462.386719 427.875 461.035156 424.976562 465.472656 425.316406 C 467.160156 426.621094 469.382812 426.1875 471.261719 425.703125 C 480.429688 423.09375 488.96875 418.699219 497.605469 414.832031 C 501.273438 412.902344 504.796875 410.773438 508.171875 408.40625 C 510.777344 406.523438 512.753906 403.914062 515.023438 401.644531 C 515.457031 400.921875 515.84375 400.148438 516.230469 399.375 C 512.851562 397.78125 510.246094 397.105469 510.152344 397.105469 C 508.800781 396.765625 507.929688 395.414062 508.269531 394.058594 C 508.605469 392.707031 509.957031 391.839844 511.308594 392.175781 C 511.597656 392.222656 514.445312 392.902344 518.109375 394.640625 C 518.160156 394.542969 518.160156 394.445312 518.207031 394.398438 C 518.882812 392.707031 519.171875 390.292969 519.222656 387.441406 C 516.324219 387.296875 514.394531 387.441406 514.300781 387.441406 Z M 411.96875 382.464844 C 410.761719 382.851562 409.988281 384.445312 408.589844 384.6875 C 405.355469 385.65625 402.65625 382.851562 401.691406 380.003906 C 400.339844 375.363281 400.726562 369.953125 403.621094 365.945312 C 403.714844 365.992188 403.957031 366.136719 404.101562 366.1875 C 404.054688 366.039062 404.007812 365.800781 404.007812 365.703125 C 406.804688 363.527344 411.4375 365.121094 412.402344 368.554688 C 413.847656 372.851562 414.234375 377.972656 411.917969 382.03125 C 411.917969 382.128906 411.96875 382.320312 411.96875 382.464844 Z M 460.550781 391.691406 C 460.167969 397.730469 454.664062 403.820312 448.296875 402.949219 C 445.304688 402.515625 443.230469 400.148438 441.496094 398.023438 C 441.300781 400.921875 437.875 402.5625 435.320312 402.996094 C 430.785156 403.238281 426.828125 399.761719 425.089844 395.800781 C 424.558594 394.445312 423.980469 392.753906 424.992188 391.5 C 426.488281 390.824219 428.128906 391.691406 429 392.996094 C 430.785156 395.269531 433.050781 398.214844 436.378906 397.488281 C 438.746094 396.1875 438.9375 393.046875 439.324219 390.679688 C 436.574219 387.875 434.835938 383.433594 436.574219 379.664062 C 438.40625 377.488281 442.023438 378.699219 443.328125 380.871094 C 444.824219 383.914062 444.628906 387.539062 443.425781 390.628906 C 444.726562 392.707031 445.835938 395.027344 447.863281 396.523438 C 449.40625 397.828125 451.914062 397.828125 453.316406 396.332031 C 455.246094 394.738281 455.824219 392.128906 457.367188 390.242188 C 458.285156 389.035156 460.839844 389.617188 460.550781 391.691406 Z M 477.34375 379.617188 C 475.363281 382.660156 469.816406 382.902344 468.320312 379.277344 C 466.003906 375.21875 466.726562 370.242188 468.175781 366.039062 C 468.753906 364.253906 469.816406 362.464844 471.601562 361.644531 C 474.542969 360.628906 477.535156 362.902344 478.402344 365.65625 C 479.804688 370.097656 480.140625 375.558594 477.34375 379.617188 Z M 477.34375 379.617188 "/><path style=" stroke:none;fill-rule:nonzero;fill:#ddc7ab;fill-opacity:1;" d="M 492.539062 422.851562 C 492.539062 422.851562 487.039062 439.664062 444.679688 443.335938 C 402.316406 447.007812 387.070312 426.089844 387.070312 426.089844 C 459.539062 443.191406 492.539062 422.851562 492.539062 422.851562 Z M 492.539062 422.851562 "/><path style=" stroke:none;fill-rule:nonzero;fill:#dba76d;fill-opacity:1;" d="M 521.199219 474.738281 C 519.945312 472.078125 518.59375 469.132812 516.035156 467.488281 C 514.589844 468.070312 513.09375 468.457031 511.742188 469.277344 C 512.5625 474.109375 512.320312 479.132812 511.164062 483.867188 C 514.539062 484.109375 517.964844 484.109375 521.296875 483.625 C 522.308594 480.773438 522.597656 477.539062 521.199219 474.738281 Z M 547.011719 464.058594 C 544.308594 461.066406 540.882812 458.359375 536.832031 457.539062 C 534.03125 457.199219 531.136719 458.3125 529.015625 460.003906 C 532.199219 464.351562 536.109375 468.40625 537.652344 473.722656 C 538.183594 475.992188 539.148438 478.3125 538.714844 480.679688 C 542.667969 479.035156 546.335938 476.765625 549.617188 474.058594 C 550.339844 470.484375 549.328125 466.71875 547.011719 464.058594 Z M 438.214844 346.8125 C 441.496094 325.21875 420.699219 309.761719 414.957031 305.945312 C 407.191406 308.699219 399.421875 311.597656 393.441406 317.34375 C 391.703125 316.910156 392.28125 314.445312 393.296875 313.527344 C 395.902344 310.96875 399.710938 309.519531 401.738281 306.570312 C 391.847656 301.742188 381.425781 297.636719 370.378906 296.71875 C 368.160156 296.570312 365.746094 296.28125 363.671875 297.25 C 362.707031 298.3125 362.707031 299.90625 361.691406 301.015625 C 366.179688 301.691406 370.136719 303.964844 374.042969 306.089844 C 377.953125 308.601562 382.148438 310.824219 385.429688 314.203125 C 387.121094 316.234375 390.253906 317.875 389.773438 320.921875 C 388.953125 321.597656 388.132812 320.921875 387.359375 320.582031 C 382.96875 324.15625 379.738281 328.890625 376.070312 333.140625 C 370.472656 339.230469 365.988281 346.332031 362.996094 354.011719 C 360.632812 358.554688 359.136719 363.527344 358.558594 368.648438 C 358.558594 368.648438 358.074219 370.582031 357.640625 373.722656 C 362.804688 374.109375 366.421875 375.121094 366.757812 375.21875 C 368.109375 375.605469 368.882812 377.007812 368.449219 378.359375 C 368.0625 379.710938 366.664062 380.484375 365.3125 380.050781 C 365.214844 380.003906 361.886719 379.085938 357.15625 378.746094 C 357.0625 380.582031 357.0625 382.5625 357.15625 384.6875 C 360.199219 384.203125 362.273438 384.15625 362.5625 384.15625 C 362.5625 384.15625 362.609375 384.15625 362.609375 384.15625 C 364.007812 384.15625 365.117188 385.269531 365.117188 386.667969 C 365.117188 388.070312 364.007812 389.230469 362.65625 389.230469 C 362.5625 389.230469 360.632812 389.277344 357.6875 389.761719 C 358.027344 392.078125 358.558594 394.445312 359.28125 396.8125 C 359.328125 396.863281 359.328125 396.863281 359.378906 396.910156 C 362.898438 394.738281 365.746094 393.722656 365.988281 393.625 C 367.289062 393.140625 368.738281 393.867188 369.21875 395.171875 C 369.703125 396.476562 368.980469 397.925781 367.675781 398.40625 C 367.628906 398.40625 366.277344 398.9375 364.296875 399.953125 C 370.523438 403.191406 378.050781 405.074219 386.828125 403.671875 C 415.199219 399.132812 434.402344 371.789062 438.214844 346.8125 Z M 411.96875 382.464844 C 410.761719 382.851562 409.988281 384.445312 408.589844 384.6875 C 405.355469 385.65625 402.65625 382.851562 401.691406 380.003906 C 400.339844 375.363281 400.726562 369.953125 403.621094 365.945312 C 403.714844 365.992188 403.957031 366.136719 404.101562 366.1875 C 404.054688 366.039062 404.007812 365.800781 404.007812 365.703125 C 406.804688 363.527344 411.4375 365.121094 412.402344 368.554688 C 413.847656 372.851562 414.234375 377.972656 411.917969 382.03125 C 411.917969 382.128906 411.96875 382.320312 411.96875 382.464844 Z M 377.664062 469.035156 C 378.386719 479.855469 379.496094 491.015625 386.976562 498.601562 C 382.730469 495.800781 379.59375 491.453125 377.808594 486.765625 C 375.492188 482.5625 375.300781 477.683594 375.347656 472.996094 C 375.394531 467.539062 376.023438 462.078125 377.375 456.8125 C 378.722656 452.320312 379.304688 447.585938 381.039062 443.191406 C 381.570312 441.160156 382.246094 439.179688 382.96875 437.199219 C 383.113281 440.195312 383.984375 444.542969 387.121094 449.277344 C 392.765625 457.730469 376.9375 458.261719 377.664062 469.035156 Z M 439.46875 489.132812 C 439.128906 494.109375 438.550781 499.085938 437.199219 503.867188 C 437.105469 504.6875 436.910156 505.414062 436.523438 505.945312 C 432.664062 511.886719 420.554688 506.957031 420.554688 506.957031 C 417.03125 506.039062 413.605469 504.640625 411.050781 501.886719 C 407.769531 498.3125 405.308594 494.058594 403.1875 489.664062 C 403.1875 489.664062 412.59375 505.21875 424.414062 501.546875 C 434.160156 498.554688 438.308594 491.5 439.46875 489.132812 Z M 403.765625 500.824219 C 404.535156 502.128906 405.355469 503.480469 406.707031 504.300781 C 406.371094 504.300781 406.082031 504.351562 405.742188 504.351562 C 404.777344 503.238281 404.101562 502.078125 403.765625 500.824219 Z M 472.664062 502.804688 C 469.042969 505.65625 464.21875 506.378906 459.78125 505.894531 C 456.546875 506.574219 455.339844 506.378906 455.339844 506.378906 C 455.339844 506.378906 455.292969 506.378906 455.292969 506.378906 C 450.757812 506.089844 446.945312 502.902344 445.789062 498.503906 C 444.96875 495.414062 444.679688 492.320312 444.484375 489.179688 C 444.484375 489.179688 449.503906 502.320312 462.769531 498.648438 C 476.039062 495.027344 481.734375 491.160156 481.734375 491.160156 C 479.851562 495.800781 477.003906 500.050781 472.664062 502.804688 Z M 482.648438 501.644531 C 482.601562 501.742188 482.601562 501.886719 482.554688 501.984375 C 482.457031 502.03125 482.3125 502.078125 482.214844 502.175781 C 482.359375 501.984375 482.503906 501.839844 482.648438 501.644531 Z M 506.050781 470.050781 C 505.953125 469.566406 503.78125 458.023438 499.199219 451.113281 C 494.519531 444.058594 479.65625 452.222656 488.148438 443.820312 C 496.640625 435.414062 492.539062 422.902344 492.539062 422.902344 C 495.484375 430.292969 498.234375 437.78125 500.355469 445.507812 C 502.816406 453.480469 505.085938 461.691406 506.050781 470.050781 Z M 506.050781 470.050781 "/></g></svg>